<?xml version="1.0" encoding="utf-8"?>
<!-- Generator: Adobe Illustrator 16.0.0, SVG Export Plug-In . SVG Version: 6.00 Build 0)  -->
<!DOCTYPE svg PUBLIC "-//W3C//DTD SVG 1.1//EN" "http://www.w3.org/Graphics/SVG/1.1/DTD/svg11.dtd">
<svg version="1.1" id="Layer_1" xmlns="http://www.w3.org/2000/svg" xmlns:xlink="http://www.w3.org/1999/xlink" x="0px" y="0px"
	 width="537.151px" height="464.646px" viewBox="343.072 84.474 537.151 464.646"
	 enable-background="new 343.072 84.474 537.151 464.646" xml:space="preserve">
<path d="M831.648,334.4c11.264-9.856,19.712-22.528,25.344-37.312c17.6-48.576-7.04-102.08-55.616-119.68
	c-1.408-0.704-2.112-0.704-3.521-1.408c-9.151-38.72-37.312-70.4-75.327-84.48c-9.152-3.52-18.305-5.632-27.456-6.336
	c-25.345-2.816-51.393,2.816-73.92,15.488c-19.713,11.264-35.2,27.456-45.761,47.872c-42.239,3.52-80.96,26.752-104.191,62.656
	c-2.112,0-3.521,0-5.632,0c-59.137-0.704-107.008,47.168-107.008,106.304c0,22.528,7.04,44.353,19.712,61.952
	c-21.12,17.6-35.2,44.352-35.2,73.92c0.704,52.8,43.648,95.744,96.447,95.744h321.729c65.472,0,118.976-53.504,118.976-118.977
	C880.224,392.128,862.624,356.928,831.648,334.4z M691.552,117.568c7.04,0.704,13.376,2.112,20.416,4.928
	c30.272,11.264,51.393,37.312,56.32,68.992c0.704,7.04,6.336,12.672,13.376,14.08c3.52,0.704,6.336,1.408,9.152,2.816
	c30.976,11.264,47.168,45.76,35.903,77.44c-4.928,13.376-14.784,24.64-26.752,31.68c-11.968-4.224-25.344-6.336-38.016-6.336
	c-2.816,0-4.928,0-7.744,0c-7.744-11.968-16.896-22.528-27.456-32.384c-1.408-30.272-12.672-57.728-31.68-80.96
	c-19.008-23.232-45.057-39.424-73.92-46.464c-2.112-0.704-4.225-0.704-7.04-1.408C632.416,127.424,661.28,114.752,691.552,117.568z
	 M391.648,317.504c0-40.832,33.088-73.92,73.92-73.92c4.224,0,7.744,0,11.968,0.704c7.04,1.408,14.08-2.112,16.896-8.448
	c18.305-34.496,54.208-55.616,92.929-55.616c8.447,0,16.896,0.704,25.344,2.816c35.904,8.448,64.063,35.904,75.328,70.4
	c-20.416-9.152-42.24-14.784-65.473-14.784c-40.128,0-78.144,15.488-107.712,43.648c-23.231,21.824-38.016,49.984-44.352,80.959
	c-9.856-3.52-20.416-5.632-31.68-5.632c-11.265,0-21.824,2.112-31.681,5.632C397.28,350.592,391.648,334.4,391.648,317.504z
	 M761.248,516.032H439.52c-34.495,0-62.655-28.16-62.655-62.656s28.16-62.656,62.655-62.656c12.673,0,25.345,3.521,35.904,11.265
	c4.928,3.52,11.264,4.224,16.896,1.407c5.632-2.815,9.151-7.743,9.151-14.08c1.408-31.68,14.784-61.247,37.312-83.071
	s52.8-33.792,84.479-33.792c45.057,0,85.889,24.64,107.712,64.063c3.521,6.336,10.561,9.856,16.896,8.448
	c4.928-0.704,9.152-1.408,14.08-1.408c16.192,0,32.384,4.929,46.464,13.376c24.64,16.192,40.128,42.944,40.128,72.513
	C847.136,477.312,808.416,516.032,761.248,516.032z"/>
</svg>
