<?xml version="1.0" encoding="utf-8"?>
<!-- Generator: Adobe Illustrator 16.0.0, SVG Export Plug-In . SVG Version: 6.00 Build 0)  -->
<!DOCTYPE svg PUBLIC "-//W3C//DTD SVG 1.1//EN" "http://www.w3.org/Graphics/SVG/1.1/DTD/svg11.dtd">
<svg version="1.1" id="Layer_1" xmlns="http://www.w3.org/2000/svg" xmlns:xlink="http://www.w3.org/1999/xlink" x="0px" y="0px"
	 width="537.152px" height="539.759px" viewBox="341.664 40.128 537.152 539.759"
	 enable-background="new 341.664 40.128 537.152 539.759" xml:space="preserve">
<path d="M532.448,570.24L594.4,422.4c2.111-4.929-1.408-9.856-6.336-9.856H513.44c-5.633,0-9.152-7.04-5.633-11.264l105.601-129.536
	c4.224-5.632,13.376-1.408,12.672,5.632l-13.376,82.368c-0.704,4.224,2.815,8.448,7.04,8.448h88.704
	c6.336,0,9.151,7.04,5.632,11.968L544.416,577.28C538.784,583.616,528.928,577.28,532.448,570.24z M759.84,111.936
	c-2.815,0-4.928,0-7.744,0c-28.16-44.352-77.439-71.808-130.943-71.808c-40.128,0-78.145,15.488-107.712,43.648
	c-23.232,21.824-38.017,49.984-44.353,80.96c-9.855-3.52-20.416-5.632-31.68-5.632c-52.8,0-95.744,42.944-95.744,95.744
	s42.944,95.744,95.744,95.744h85.888l26.752-33.088h-112.64c-34.496,0-62.656-28.16-62.656-62.656s28.16-62.656,62.656-62.656
	c12.672,0,25.344,3.52,35.904,11.264c4.928,3.52,11.264,4.224,16.896,1.408c5.632-2.816,9.152-7.744,9.152-14.08
	c1.407-31.68,14.784-61.248,37.312-83.072c22.528-21.824,52.8-33.792,84.48-33.792c45.056,0,85.888,24.64,107.712,64.064
	c3.52,6.336,10.56,9.856,16.896,8.448c4.928-0.704,9.152-1.408,14.08-1.408c47.872,0,86.592,38.72,86.592,86.592
	s-38.72,85.888-86.592,85.888H639.456l-4.928,30.272l0.704,2.111H759.84c65.473,0,118.977-53.504,118.977-118.976
	C878.816,165.44,826.016,111.936,759.84,111.936z"/>
</svg>
