<?xml version="1.0" encoding="utf-8"?>
<!-- Generator: Adobe Illustrator 16.0.0, SVG Export Plug-In . SVG Version: 6.00 Build 0)  -->
<!DOCTYPE svg PUBLIC "-//W3C//DTD SVG 1.1//EN" "http://www.w3.org/Graphics/SVG/1.1/DTD/svg11.dtd">
<svg version="1.1" id="Layer_1" xmlns="http://www.w3.org/2000/svg" xmlns:xlink="http://www.w3.org/1999/xlink" x="0px" y="0px"
	 width="363.264px" height="368.016px" viewBox="428.256 133.232 363.264 368.016"
	 enable-background="new 428.256 133.232 363.264 368.016" xml:space="preserve">
<path d="M615.52,501.248c-49.983,0-97.151-19.712-132.352-54.912s-54.912-82.368-54.912-132.352
	c0-41.537,13.376-80.96,38.72-114.048c24.641-31.68,59.137-55.616,97.856-66.176c5.632-1.408,11.968,0,16.192,4.224
	c4.224,4.224,5.632,10.56,4.224,16.192c-3.52,13.376-5.632,27.456-5.632,41.536c0,85.184,68.992,154.176,154.176,154.176
	c14.08,0,28.16-2.111,41.536-5.632c5.632-1.408,11.968,0,16.191,4.225c4.225,4.224,5.633,10.56,4.225,16.191
	c-10.561,38.72-34.496,73.216-66.176,97.856C696.48,487.872,657.056,501.248,615.52,501.248z M547.232,174.592
	c-21.12,10.56-40.129,26.048-54.208,44.352c-21.12,27.456-31.681,59.84-31.681,94.336c0,85.184,68.992,154.176,154.176,154.176
	c34.496,0,66.881-11.264,94.337-31.68c19.008-14.784,34.495-33.089,44.352-54.208c-7.04,0.704-13.376,1.407-20.416,1.407
	c-49.984,0-97.152-19.712-132.352-54.911c-35.2-35.2-54.912-82.369-54.912-132.353C545.824,188.672,546.528,181.632,547.232,174.592
	z"/>
</svg>
