<?xml version="1.0" encoding="utf-8"?>
<!-- Generator: Adobe Illustrator 16.0.0, SVG Export Plug-In . SVG Version: 6.00 Build 0)  -->
<!DOCTYPE svg PUBLIC "-//W3C//DTD SVG 1.1//EN" "http://www.w3.org/Graphics/SVG/1.1/DTD/svg11.dtd">
<svg version="1.1" id="Layer_1" xmlns="http://www.w3.org/2000/svg" xmlns:xlink="http://www.w3.org/1999/xlink" x="0px" y="0px"
	 width="536.448px" height="544.704px" viewBox="343.776 43.648 536.448 544.704"
	 enable-background="new 343.776 43.648 536.448 544.704" xml:space="preserve">
<path d="M761.248,353.408H439.52c-52.799,0-95.744-42.944-95.744-95.744c0-52.8,42.944-95.04,95.744-95.04
	c10.561,0,21.12,2.112,31.681,4.928c6.336-30.271,21.824-58.432,44.352-80.96c28.864-28.16,66.88-42.944,107.008-42.944
	c53.505,0,102.08,27.456,130.944,71.808c2.816,0,4.928,0,7.744,0c22.528,0,45.056,6.336,64.064,19.008
	c34.495,21.824,54.911,59.84,54.911,100.672C880.224,299.904,826.72,353.408,761.248,353.408z M439.52,195.712
	c-34.495,0-62.655,28.16-62.655,62.656c0,34.496,28.16,62.656,62.655,62.656h321.729c47.168,0,85.888-38.72,85.888-85.889
	c0-29.568-14.784-57.024-40.128-72.512c-14.08-9.152-29.567-13.376-46.464-13.376c-4.928,0-9.152,0.704-14.08,1.408
	c-7.04,1.408-14.08-2.112-16.896-8.448c-21.12-39.424-62.656-64.064-107.009-64.064c-31.68,0-61.951,11.968-84.479,33.792
	c-22.528,21.824-35.904,51.392-37.312,83.072c0,6.336-3.52,11.264-9.151,14.08s-11.968,2.112-16.896-1.408
	C464.864,199.232,452.192,195.712,439.52,195.712z M520.48,451.264l-11.265-6.336l11.265-6.336c4.928-2.815,6.336-8.448,3.52-13.376
	s-8.448-6.336-13.376-3.52l-11.264,6.336V415.36c0-5.633-4.225-9.856-9.856-9.856s-9.855,4.224-9.855,9.856v12.672l-11.265-6.336
	c-4.928-2.816-10.56-1.408-13.376,3.52c-2.815,4.928-1.408,10.561,3.521,13.376l11.264,6.336l-11.264,6.336
	c-4.929,2.816-6.336,8.448-3.521,13.376c2.112,2.816,4.928,4.929,8.448,4.929c1.408,0,3.52-0.704,4.928-1.408l11.265-6.336v12.672
	c0,5.632,4.224,9.855,9.855,9.855s9.856-4.224,9.856-9.855v-12.672l11.264,6.336c1.408,0.704,3.521,1.408,4.928,1.408
	c3.521,0,6.336-1.408,8.448-4.929C526.816,459.712,525.408,454.08,520.48,451.264z M521.48,555.264l-11.265-6.336l11.265-6.336
	c4.928-2.815,6.336-8.448,3.52-13.376s-8.448-6.336-13.376-3.52l-11.264,6.336V519.36c0-5.633-4.225-9.856-9.856-9.856
	s-9.855,4.224-9.855,9.856v12.672l-11.265-6.336c-4.928-2.816-10.56-1.408-13.376,3.52c-2.815,4.928-1.408,10.561,3.521,13.376
	l11.264,6.336l-11.264,6.336c-4.929,2.816-6.336,8.448-3.521,13.376c2.112,2.816,4.928,4.929,8.448,4.929
	c1.408,0,3.52-0.704,4.928-1.408l11.265-6.336v12.672c0,5.632,4.224,9.855,9.855,9.855s9.856-4.224,9.856-9.855v-12.672
	l11.264,6.336c1.408,0.704,3.521,1.408,4.928,1.408c3.521,0,6.336-1.408,8.448-4.929C527.816,563.712,526.408,558.08,521.48,555.264
	z M650.016,499.136l-10.56-6.336l11.264-6.336c4.929-2.815,6.336-8.448,3.521-13.376c-2.816-4.928-8.448-6.336-13.376-3.52
	l-11.265,6.336v-12.672c0-5.633-4.224-9.856-9.855-9.856s-9.856,4.224-9.856,9.856v12.672l-11.264-6.336
	c-4.928-2.816-10.56-1.408-13.376,3.52s-1.408,10.561,3.52,13.376l11.265,6.336l-11.265,6.336c-4.928,2.816-6.336,8.448-3.52,13.376
	c2.112,2.816,4.928,4.929,8.448,4.929c1.407,0,3.52-0.704,4.928-1.408l11.264-6.336v12.672c0,5.632,4.225,9.855,9.856,9.855
	s9.855-4.224,9.855-9.855v-12.672l11.265,6.336c1.407,0.704,3.52,1.408,4.928,1.408c3.521,0,6.336-1.408,8.448-4.929
	C656.352,507.584,654.944,501.248,650.016,499.136z M766.88,425.216l-11.264-6.336l11.264-6.336
	c4.928-2.816,6.336-8.448,3.521-13.376c-2.816-4.928-8.448-6.336-13.376-3.52l-11.265,6.336v-12.673
	c0-5.632-4.224-9.855-9.855-9.855c-5.633,0-9.856,4.224-9.856,9.855v12.673l-11.264-6.336c-4.929-2.816-10.561-1.408-13.376,3.52
	c-2.816,4.928-1.408,10.56,3.52,13.376l11.265,6.336l-11.265,6.336c-4.928,2.816-6.336,8.448-3.52,13.376
	c2.111,2.816,4.928,4.928,8.447,4.928c1.408,0,3.521-0.703,4.929-1.407l11.264-6.336v12.672c0,5.632,4.224,9.855,9.856,9.855
	c5.632,0,9.855-4.224,9.855-9.855v-12.672l11.265,6.336c1.407,0.704,3.52,1.407,4.928,1.407c3.52,0,6.336-1.407,8.448-4.928
	C773.216,433.664,771.808,427.328,766.88,425.216z M767.88,530.615l-11.264-6.336l11.264-6.336
	c4.928-2.816,6.336-8.448,3.521-13.376c-2.816-4.928-8.448-6.336-13.376-3.52l-11.265,6.336v-12.673
	c0-5.632-4.224-9.855-9.855-9.855c-5.633,0-9.856,4.224-9.856,9.855v12.673l-11.264-6.336c-4.929-2.816-10.561-1.408-13.376,3.52
	c-2.816,4.928-1.408,10.56,3.52,13.376l11.265,6.336l-11.265,6.336c-4.928,2.816-6.336,8.448-3.52,13.376
	c2.111,2.816,4.928,4.928,8.447,4.928c1.408,0,3.521-0.703,4.929-1.407l11.264-6.336v12.672c0,5.632,4.224,9.855,9.856,9.855
	c5.632,0,9.855-4.224,9.855-9.855v-12.672l11.265,6.336c1.407,0.704,3.52,1.407,4.928,1.407c3.52,0,6.336-1.407,8.448-4.928
	C774.216,539.063,772.808,532.728,767.88,530.615z"/>
</svg>
