<?xml version="1.0" encoding="utf-8"?>
<!-- Generator: Adobe Illustrator 16.0.0, SVG Export Plug-In . SVG Version: 6.00 Build 0)  -->
<!DOCTYPE svg PUBLIC "-//W3C//DTD SVG 1.1//EN" "http://www.w3.org/Graphics/SVG/1.1/DTD/svg11.dtd">
<svg version="1.1" id="Layer_1" xmlns="http://www.w3.org/2000/svg" xmlns:xlink="http://www.w3.org/1999/xlink" x="0px" y="0px"
	 width="536.448px" height="551.936px" viewBox="340.256 40.832 536.448 551.936"
	 enable-background="new 340.256 40.832 536.448 551.936" xml:space="preserve">
<path d="M592.288,121.792V57.728c0-9.152,7.744-16.896,16.896-16.896c9.152,0,16.896,7.744,16.896,16.896v64.064
	c0,9.152-7.744,16.896-16.896,16.896C600.032,138.688,592.288,130.944,592.288,121.792z M733.792,190.08
	c4.224,0,8.448-1.408,11.968-4.928l45.057-45.056c6.336-6.336,6.336-16.896,0-23.232c-6.336-6.336-16.896-6.336-23.232,0
	l-45.056,45.056c-6.336,6.336-6.336,16.896,0,23.232C725.344,188.672,729.568,190.08,733.792,190.08z M768.992,299.2
	c0,9.151,7.744,16.896,16.896,16.896h64.064c9.151,0,16.896-7.744,16.896-16.896c0-9.152-7.744-16.896-16.896-16.896h-64.064
	C776.736,282.304,768.992,290.048,768.992,299.2z M367.712,315.392h64.064c9.151,0,16.896-7.743,16.896-16.896
	s-7.744-16.896-16.896-16.896h-64.064c-9.152,0-16.896,7.744-16.896,16.896S358.56,315.392,367.712,315.392z M471.2,185.152
	c3.52,3.52,7.744,4.928,11.968,4.928s8.448-1.408,11.968-4.928c6.336-6.336,6.336-16.896,0-23.232l-45.056-45.056
	c-6.336-6.336-16.896-6.336-23.232,0c-6.336,6.336-6.336,16.896,0,23.232L471.2,185.152z M876.704,473.088
	c0,65.472-53.504,119.68-119.68,119.68H436c-52.8,0-95.744-42.943-95.744-95.743c0-52.801,42.944-96.448,95.744-96.448
	c10.56,0,21.12,2.111,30.976,4.928c4.225-20.416,12.673-40.128,24.641-57.023c-6.336-15.488-10.561-32.385-10.561-49.984
	c0-70.4,57.024-127.424,127.425-127.424c70.399,0,127.424,57.024,127.424,127.424c0,10.56-1.408,21.12-4.225,31.68
	c7.04,7.04,12.672,14.784,18.305,23.232c2.815,0,4.928,0,7.744,0C823.2,353.408,876.704,406.912,876.704,473.088z M514.848,299.2
	c0,7.04,0.704,14.08,2.112,21.12c1.408-0.704,2.112-2.112,3.521-2.816c1.407-1.408,2.815-2.112,4.224-3.52
	c2.112-2.112,4.928-3.521,7.04-4.929c1.408-0.704,2.815-2.111,4.224-2.815c2.816-1.408,4.929-2.816,7.744-4.224
	c1.408-0.704,2.816-1.408,4.928-2.816c2.816-1.408,5.632-2.816,8.448-3.52c1.408-0.704,3.521-1.408,4.928-2.112
	c2.816-1.408,5.633-2.112,8.448-2.816c1.408-0.704,3.521-1.408,4.928-1.408c2.816-0.704,5.633-1.408,9.152-2.112
	c1.408-0.704,3.521-0.704,4.928-1.408c3.521-0.704,6.336-0.704,9.856-1.408c1.408,0,2.816-0.704,4.224-0.704
	c4.929-0.704,9.856-0.704,14.784-0.704c3.52,0,7.04,0,10.561,0.704c1.407,0,2.111,0,3.52,0c2.112,0,4.224,0.704,7.04,0.704
	c1.408,0,2.815,0.704,4.224,0.704c2.112,0,4.225,0.704,5.633,1.408c1.407,0,2.815,0.704,4.224,0.704
	c2.112,0.704,3.52,0.704,5.632,1.408c1.408,0.704,2.816,0.704,4.928,1.408c2.112,0.704,3.521,1.408,5.632,1.408
	c1.408,0.704,2.816,0.704,4.225,1.408c2.112,0.704,3.52,1.408,5.632,2.112c1.408,0.704,2.816,1.408,4.224,2.112
	c2.112,0.704,4.225,2.112,5.632,2.816c0.704,0.704,2.112,0.704,2.816,1.408c2.816,1.408,6.336,3.52,9.152,4.928
	c0-2.112,0-4.928,0-7.04c0-52.096-42.24-93.632-93.632-93.632C556.384,205.568,514.848,247.104,514.848,299.2z M843.616,473.088
	c0-47.168-38.72-85.888-85.888-85.888c-4.929,0-9.152,0.704-14.08,1.408c-7.04,1.407-14.08-2.112-17.601-8.448
	c-6.336-11.968-14.784-22.528-24.64-31.68l0,0c-2.816-2.112-5.632-4.929-8.448-7.04c-0.704-0.704-1.408-0.704-1.408-1.408
	c-2.111-1.408-4.928-3.521-7.04-4.929c-0.704-0.703-1.408-0.703-2.111-1.407c-2.816-1.408-5.633-3.521-8.448-4.929
	c-0.704,0-1.408-0.703-2.112-0.703c-2.111-1.408-4.928-2.112-7.04-3.521c-0.704-0.704-2.111-0.704-2.815-1.408
	c-2.112-0.704-4.929-1.408-7.04-2.815c-0.704,0-1.408-0.704-2.112-0.704c-2.816-0.704-6.336-1.408-9.856-2.112
	c-0.703,0-2.111,0-2.815-0.704c-2.816-0.704-4.928-0.704-7.744-1.408c-0.704,0-2.112,0-2.816,0c-3.52,0-7.04-0.704-10.56-0.704
	c-4.224,0-8.448,0-12.672,0.704c-1.408,0-2.816,0.704-4.224,0.704c-2.816,0.704-5.633,0.704-8.448,1.408
	c-1.408,0-3.521,0.704-4.929,1.408c-2.815,0.704-4.928,1.408-7.743,2.112c-1.408,0.703-3.521,1.407-4.929,1.407
	c-2.111,0.704-4.928,2.112-7.04,2.816c-1.407,0.704-2.815,1.408-4.928,2.112c-2.112,1.407-4.928,2.815-7.04,3.52
	c-1.408,0.704-2.816,1.408-4.224,2.112c-3.521,2.111-7.04,4.224-9.856,7.04c-0.704,0.704-1.408,1.408-2.111,2.111
	c-2.816,2.112-4.929,4.225-7.744,7.04c-0.704,0.704-2.112,2.112-2.816,2.816c-2.112,2.112-4.224,4.224-6.336,7.04
	c-16.896,20.416-26.752,45.76-27.456,71.808c0,6.336-3.52,11.265-9.152,14.08c-5.632,2.816-11.968,2.112-16.896-1.408
	c-10.561-7.039-22.528-11.264-35.2-11.264c-34.496,0-62.656,28.16-62.656,62.656s28.16,62.656,62.656,62.656h321.729
	C804.896,558.976,843.616,520.256,843.616,473.088z"/>
</svg>
